<svg width="24" height="24" viewBox="0 0 24 24" fill="none" xmlns="http://www.w3.org/2000/svg">
<path d="M14.8023 0.0120698C13.463 0.125479 11.2884 0.610399 9.47867 1.20091C6.02717 2.32717 2.74369 4.04004 1.02034 5.61603C0.25227 6.31604 -0.0309545 6.77358 0.00264842 7.26633C0.0314509 7.73169 0.333877 8.05237 0.741913 8.05237C0.953131 8.05237 1.12595 7.92723 1.31316 7.64175C2.01402 6.57805 3.53576 5.36966 5.44152 4.36462C7.22728 3.42216 9.15224 2.6674 11.298 2.06516C14.0727 1.28694 16.0408 1.20091 17.5386 1.78751C19.5739 2.58919 20.006 4.17691 18.6523 5.8624C17.4042 7.41884 15.1096 8.8736 12.3205 9.87864C11.2164 10.2736 9.39706 10.7898 9.32026 10.7273C9.30106 10.7155 9.32506 10.6178 9.36346 10.5161C9.40667 10.4144 9.66589 9.79652 9.94431 9.13953C11.5813 5.2367 11.9893 3.95401 11.7205 3.5864C11.4996 3.27746 10.8708 3.33612 10.578 3.68808C10.4724 3.81713 10.3091 4.16518 9.8099 5.32664C9.63229 5.73335 9.35866 6.36688 9.20025 6.73448C9.04183 7.09817 8.74421 7.79426 8.53779 8.27918C8.33137 8.76411 7.96654 9.59707 7.73132 10.1367L7.29928 11.1144L7.08806 11.1809C6.97765 11.2161 6.56002 11.3256 6.16158 11.4273C5.34071 11.6384 5.1631 11.7049 4.96628 11.8731C4.86547 11.9591 4.82227 12.0412 4.80307 12.182C4.78386 12.3619 4.79346 12.3854 4.95188 12.5105C5.2063 12.7217 5.56153 12.7334 6.392 12.5574C6.55042 12.5262 6.69443 12.5027 6.71363 12.5105C6.73283 12.5183 6.65603 12.7412 6.53602 13.0111C5.40792 15.553 4.93748 16.5815 3.56936 19.4636C3.02211 20.6134 2.39326 21.943 2.16764 22.4123C1.7596 23.2765 1.64919 23.5894 1.7068 23.7145C1.7212 23.7536 1.7884 23.8318 1.85561 23.8905C1.95642 23.9804 2.01882 24 2.21084 24C2.34045 24 2.51327 23.9726 2.59487 23.9374C2.81089 23.8475 3.84778 23.3117 4.91347 22.7408C5.41752 22.4748 6.3776 21.9782 7.04966 21.6341C7.72172 21.2938 8.38418 20.9575 8.51379 20.891C8.96023 20.6603 10.6116 19.9251 11.1492 19.7178C12.6181 19.1547 13.9095 18.8575 14.2743 18.9983C14.3559 19.0296 14.4231 19.0882 14.4327 19.1391C14.4423 19.186 14.3415 19.3854 14.2071 19.5888C13.8519 20.1285 13.7558 20.3905 13.751 20.8324C13.751 21.1413 13.7654 21.2313 13.8519 21.3642C14.1207 21.7748 14.5863 21.9274 15.5656 21.9274C16.8329 21.9274 18.2202 21.6614 20.1068 21.0553C21.3453 20.6564 23.3039 19.8195 23.8079 19.4715C24.0383 19.3072 24.0623 19.1391 23.8751 18.9944C23.6687 18.8379 23.3567 18.8731 22.8238 19.1117C20.4668 20.1715 18.3498 20.8011 16.6601 20.9536C15.3304 21.0709 14.9175 20.7033 15.4504 19.8782C15.5464 19.7257 15.7192 19.4636 15.8344 19.2916C16.1897 18.7558 16.1465 18.3374 15.7048 18.1027C15.6136 18.0519 15.3688 17.9815 15.1672 17.9502C14.7207 17.8759 14.1351 17.9189 13.2614 18.0949C11.9653 18.353 10.746 18.7597 8.36978 19.7257C7.57771 20.0502 6.76644 20.3631 6.56962 20.4178C6.09438 20.5586 5.63354 20.5938 5.42232 20.5039C5.28311 20.4413 5.26871 20.4257 5.30231 20.3123C5.33111 20.1949 5.48472 19.8312 6.46881 17.5787C6.67523 17.0977 7.08806 16.1435 7.38569 15.4552C8.58099 12.6748 8.701 12.4049 8.74901 12.3619C8.77781 12.3384 8.97463 12.2876 9.18585 12.2485C9.8531 12.1273 10.8564 11.8848 11.6437 11.658C14.6295 10.7937 16.9001 9.6792 18.7675 8.16187C20.3756 6.85571 21.2061 5.69816 21.4317 4.44284C21.6333 3.32439 21.1533 2.20203 20.1116 1.35342C19.3291 0.719898 18.3594 0.305369 17.1305 0.0863722C16.7801 0.0238018 15.2584 -0.023126 14.8023 0.0120698Z"/>
</svg>
